<svg width="12" height="12" viewBox="-2 -2 14 14" fill="none" xmlns="http://www.w3.org/2000/svg">
  <path fill-rule="evenodd" clip-rule="evenodd" d="M11 1L7 5L11 9C11.5523 9.55228 11.5523 10.4477 11 11C10.4477 11.5523 9.55228 11.5523 9 11L5 7L1 11C0.447715 11.5523 -0.447715 11.5523 -1 11C-1.55228 10.4477 -1.55228 9.55228 -1 9L3 5L-1 1C-1.55228 0.447715 -1.55228 -0.447715 -1 -1C-0.447715 -1.55228 0.447715 -1.55228 1 -1L5 3L9 -1C9.55228 -1.55228 10.4477 -1.55228 11 -1C11.5523 -0.447715 11.5523 0.447715 11 1Z" fill="white"/>
</svg>
